# xmcd
#
# Track frame offsets: 
#        150
#        15350
#        44279
#        56675
#        83050
#        99745
#        123029
#        143099
#        161795
#        183273
#        212990
#        229763
#        261852
#        273463
#        285287
#        323141
#        339855
#
# Disc length: 4797 seconds
#
# Revision: 0
# Processed by: cddbd v1.5.2PL0 Copyright (c) Steve Scherf et al.
# Submitted via: ExactAudioCopy v0.95a5
#
DISCID=e712bb11
DTITLE=Various Artist - Blues-Rock Now!!!  Box-1  CD-1
DYEAR=2007
DGENRE=Rock
TTITLE0=I've Got The Rhythm - WILD T. and The SPIRIT
TTITLE1=Ball and Chain - GWYN ASHTON
TTITLE2=Down On Parchman Farm - ROB ORLEMANS and Half Past Midnight
TTITLE3=Crawlin' Moon - BUDDAH HEADS
TTITLE4=Eatin' On Me - SOUL DOCTOR
TTITLE5=Runnin' all my life - JULIAN SAS
TTITLE6=I Won't Get Down - JESUS VOLT
TTITLE7=I Got Me A Woman - ERIC GALES
TTITLE8=Heaven Help Me - CHRIS AARON BAND
TTITLE9=Worth the Live - MATT O'REE
TTITLE10=Baby Please Don't Go - ROB TOGNONI
TTITLE11=So Many Roads - JOE BONAMASSA
TTITLE12=Rolling and Tumbling - PHIL BROWN
TTITLE13=Stomp - RHINO BUCKET
TTITLE14=Six Feet Down - INDIGENOUS
TTITLE15=Laura Lee - JAY JESSE JOHNSON
TTITLE16=Robert Johnson's Tombstone - THUNDER
EXTD=
EXTT0=
EXTT1=
EXTT2=
EXTT3=
EXTT4=
EXTT5=
EXTT6=
EXTT7=
EXTT8=
EXTT9=
EXTT10=
EXTT11=
EXTT12=
EXTT13=
EXTT14=
EXTT15=
EXTT16=
PLAYORDER=
